{"title":"Toy Story 3 2010 BRRip 720p.H264.Feel-Free","uid":5886358,"size":1982475720,"categoryP":"video","categoryS":"hd___movies","magnet":"?xt=urn:btih:fe5616605bdce5257001848fc47e3ec5fe73f3ee&amp;dn=Toy+Story+3+2010+BRRip+720p.H264.Feel-Free&amp;tr=udp%3A%2F%2Ftracker.openbittorrent.com%3A80&amp;tr=udp%3A%2F%2Fopen.demonii.com%3A1337&amp;tr=udp%3A%2F%2Ftracker.coppersurfer.tk%3A6969&amp;tr=udp%3A%2F%2Fexodus.desync.com%3A6969","seeders":0,"leechers":1,"uploader":"neon","files":-1,"time":1287069357,"description":"The toys are mistakenly delivered to a day-care center instead of the attic right before Andy leaves for college, and it\\'s up to Woody to convince the other toys that they weren\\'t abandoned and to return home\n\nGenre:Animation | Adventure | Comedy | Family | Fantasy\nLanguage:English\n &lt;a href=&quot; http://www.imdb.com/title/tt0435761/&quot; rel=&quot;nofollow&quot; target=&quot;_NEW&quot;&gt; http://www.imdb.com/title/tt0435761/&lt;/a&gt;\nSource:720p.BluRay.X264-HUBRIS\nSubtitles:Romana\n &lt;a href=&quot;\nhttp://www.starshare.ro/bitbucket/Toy.Story.3.2010.BRRip.720p.H264.Feel-Free.mp4_snapshot_00.09.48_%5B2010.10.14_14.18.47%5D.jpg&quot; rel=&quot;nofollow&quot; target=&quot;_NEW&quot;&gt;\nhttp://www.starshare.ro/bitbucket/Toy.Story.3.2010.BRRip.720p.H264.Feel-Free.mp4_snapshot_00.09.48_%5B2010.10.14_14.18.47%5D.jpg&lt;/a&gt;\n &lt;a href=&quot;\nhttp://www.starshare.ro/bitbucket/Toy.Story.3.2010.BRRip.720p.H264.Feel-Free.mp4_snapshot_00.13.05_%5B2010.10.14_14.18.14%5D.jpg&quot; rel=&quot;nofollow&quot; target=&quot;_NEW&quot;&gt;\nhttp://www.starshare.ro/bitbucket/Toy.Story.3.2010.BRRip.720p.H264.Feel-Free.mp4_snapshot_00.13.05_%5B2010.10.14_14.18.14%5D.jpg&lt;/a&gt;\n &lt;a href=&quot;\nhttp://www.starshare.ro/bitbucket/Toy.Story.3.2010.BRRip.720p.H264.Feel-Free.mp4_snapshot_00.31.59_%5B2010.10.14_14.18.11%5D.jpg&quot; rel=&quot;nofollow&quot; target=&quot;_NEW&quot;&gt;\nhttp://www.starshare.ro/bitbucket/Toy.Story.3.2010.BRRip.720p.H264.Feel-Free.mp4_snapshot_00.31.59_%5B2010.10.14_14.18.11%5D.jpg&lt;/a&gt;\n &lt;a href=&quot;\nhttp://www.starshare.ro/bitbucket/Toy.Story.3.2010.BRRip.720p.H264.Feel-Free.mp4_snapshot_00.38.52_%5B2010.10.14_14.18.18%5D.jpg&quot; rel=&quot;nofollow&quot; target=&quot;_NEW&quot;&gt;\nhttp://www.starshare.ro/bitbucket/Toy.Story.3.2010.BRRip.720p.H264.Feel-Free.mp4_snapshot_00.38.52_%5B2010.10.14_14.18.18%5D.jpg&lt;/a&gt;\n &lt;a href=&quot;\nhttp://www.starshare.ro/bitbucket/Toy.Story.3.2010.BRRip.720p.H264.Feel-Free.mp4_snapshot_00.47.40_%5B2010.10.14_14.18.21%5D.jpg&quot; rel=&quot;nofollow&quot; target=&quot;_NEW&quot;&gt;\nhttp://www.starshare.ro/bitbucket/Toy.Story.3.2010.BRRip.720p.H264.Feel-Free.mp4_snapshot_00.47.40_%5B2010.10.14_14.18.21%5D.jpg&lt;/a&gt;\n &lt;a href=&quot;\nhttp://www.youtube.com/watch?v=v_FfHA5whXc&amp;feature=player_embedded&quot; rel=&quot;nofollow&quot; target=&quot;_NEW&quot;&gt;\nhttp://www.youtube.com/watch?v=v_FfHA5whXc&amp;feature=player_embedded&lt;/a&gt;\n\nGeneral\nComplete name :Toy.Story.3.2010.BRRip.720p.H264.Feel-Free\nFormat : MPEG-4\nFormat profile : Base Media\nCodec ID : isom\nFile size : 1.85 GiB\nDuration : 1h 42mn\nOverall bit rate : 2 576 Kbps\nVideo #2\nCodec ID : avc1\nCodec ID/Info : Advanced Video Coding\nDuration : 1h 42mn\nBit rate mode : Variable\nBit rate : 2 379 Kbps\nWidth : 1 280 pixels\nHeight : 720 pixels\nDisplay aspect ratio : 16:9\nFrame rate mode : Constant\nFrame rate : 23.976 fps\nOriginal frame rate : 23.000 fps\nResolution : 24 bits\nColorimetry : 4:2:0\nScan type : Progressive\nBits/(Pixel*Frame) : 0.108\nStream size : 1.70 GiB (92%)\nAudio #1\nID : 1\nFormat : AAC\nFormat/Info : Advanced Audio Codec\nFormat version : Version 4\nFormat profile : LC\nFormat settings, SBR : No\nCodec ID : 40\nDuration : 1h 42mn\nBit rate mode : Constant\nBit rate : 192 Kbps\nChannel(s) : 6 channels\nChannel positions : Front: L C R, Rear: L R, LFE\nSampling rate : 48.0 KHz\nResolution : 16 bits\nStream size : 141 MiB (7%)\n","torrent":{"xt":"urn:btih:fe5616605bdce5257001848fc47e3ec5fe73f3ee","amp;dn":"Toy+Story+3+2010+BRRip+720p.H264.Feel-Free","amp;tr":["udp%3A%2F%2Ftracker.openbittorrent.com%3A80","udp%3A%2F%2Fopen.demonii.com%3A1337","udp%3A%2F%2Ftracker.coppersurfer.tk%3A6969","udp%3A%2F%2Fexodus.desync.com%3A6969"],"infoHash":"fe5616605bdce5257001848fc47e3ec5fe73f3ee","infoHashBuffer":{"type":"Buffer","data":[254,86,22,96,91,220,229,37,112,1,132,143,196,126,62,197,254,115,243,238]},"announce":[],"urlList":[]}}